<svg width="20" height="20" viewBox="0 0 20 20" fill="none" xmlns="http://www.w3.org/2000/svg">
<path d="M6.55 8.55005C6.55 8.81527 6.44464 9.06962 6.25711 9.25716C6.06957 9.44469 5.81522 9.55005 5.55 9.55005C5.28478 9.55005 5.03043 9.44469 4.84289 9.25716C4.65536 9.06962 4.55 8.81527 4.55 8.55005C4.55 8.28483 4.65536 8.03048 4.84289 7.84294C5.03043 7.65541 5.28478 7.55005 5.55 7.55005C5.81522 7.55005 6.06957 7.65541 6.25711 7.84294C6.44464 8.03048 6.55 8.28483 6.55 8.55005ZM8.55 9.55005C8.81522 9.55005 9.06957 9.44469 9.25711 9.25716C9.44464 9.06962 9.55 8.81527 9.55 8.55005C9.55 8.28483 9.44464 8.03048 9.25711 7.84294C9.06957 7.65541 8.81522 7.55005 8.55 7.55005C8.28478 7.55005 8.03043 7.65541 7.84289 7.84294C7.65536 8.03048 7.55 8.28483 7.55 8.55005C7.55 8.81527 7.65536 9.06962 7.84289 9.25716C8.03043 9.44469 8.28478 9.55005 8.55 9.55005ZM11.55 9.55005C11.8152 9.55005 12.0696 9.44469 12.2571 9.25716C12.4446 9.06962 12.55 8.81527 12.55 8.55005C12.55 8.28483 12.4446 8.03048 12.2571 7.84294C12.0696 7.65541 11.8152 7.55005 11.55 7.55005C11.2848 7.55005 11.0304 7.65541 10.8429 7.84294C10.6554 8.03048 10.55 8.28483 10.55 8.55005C10.55 8.81527 10.6554 9.06962 10.8429 9.25716C11.0304 9.44469 11.2848 9.55005 11.55 9.55005Z" fill="#6D6D6D"/>
<path fill-rule="evenodd" clip-rule="evenodd" d="M14.207 2.8931C15.5855 4.27117 16.4134 6.1051 16.5353 8.05045C16.6572 9.9958 16.0647 11.9187 14.869 13.4581C14.8843 13.4714 14.8993 13.4854 14.914 13.5001L19.157 17.7431C19.3392 17.9317 19.44 18.1843 19.4377 18.4465C19.4354 18.7087 19.3302 18.9595 19.1448 19.1449C18.9594 19.3303 18.7086 19.4355 18.4464 19.4378C18.1842 19.44 17.9316 19.3393 17.743 19.1571L13.5 14.9141L13.458 14.8691C11.8504 16.1161 9.82803 16.7038 7.80246 16.5126C5.77689 16.3214 3.90022 15.3658 2.55425 13.8401C1.20828 12.3143 0.494118 10.3331 0.557047 8.29953C0.619975 6.26593 1.45527 4.33269 2.893 2.8931C3.63587 2.15018 4.5178 1.56087 5.48844 1.15881C6.45907 0.756744 7.49939 0.549805 8.55 0.549805C9.60061 0.549805 10.6409 0.756744 11.6116 1.15881C12.5822 1.56087 13.4641 2.15018 14.207 2.8931ZM4.307 12.7931C4.86413 13.3503 5.52556 13.7923 6.25351 14.0939C6.98147 14.3955 7.76169 14.5507 8.54965 14.5508C9.3376 14.5508 10.1178 14.3956 10.8458 14.0942C11.5738 13.7927 12.2353 13.3507 12.7925 12.7936C13.3497 12.2365 13.7917 11.575 14.0933 10.8471C14.3949 10.1191 14.5501 9.3389 14.5502 8.55095C14.5502 7.763 14.395 6.98275 14.0936 6.25476C13.7921 5.52677 13.3501 4.86529 12.793 4.3081C11.6647 3.19801 10.1434 2.57875 8.56062 2.5852C6.9778 2.59164 5.46164 3.22327 4.34241 4.34251C3.22318 5.46174 2.59155 6.97789 2.5851 8.56072C2.57865 10.1435 3.19692 11.6648 4.307 12.7931Z" fill="#6D6D6D"/>
</svg>
