<svg width="22" height="20" viewBox="0 0 22 20" fill="none" xmlns="http://www.w3.org/2000/svg">
<path d="M8 2.76501V18H10V13H12V18H14V2.76601C13.0809 2.26107 12.0487 1.99752 11 2.00002C9.911 2.00002 8.89 2.27701 8 2.76501ZM16 4.38102V8.10102C16.6511 7.43492 17.4289 6.90587 18.2876 6.54503C19.1463 6.1842 20.0686 5.99889 21 6.00002H22V20H0V6.00002H1C2.959 6.00002 4.73 6.80402 6 8.10102V4.38102L5.967 4.41102L4.588 2.96301L5.312 2.27301C5.66267 1.93968 6.04133 1.63835 6.448 1.36902C7.79689 0.473258 9.38078 -0.0030932 11 1.51154e-05C13.1191 -0.00313102 15.1576 0.812261 16.69 2.27602L17.414 2.96602L16.034 4.41402L16 4.38102ZM6 13C6.00024 11.8474 5.60222 10.73 4.87331 9.83711C4.1444 8.9442 3.12936 8.33055 2 8.10002V18H6V13ZM16 18H20V8.10002C18.8706 8.33055 17.8556 8.9442 17.1267 9.83711C16.3978 10.73 15.9998 11.8474 16 13V18ZM10 4.99802H12.004V7.00202H10V4.99802Z" fill="#6E6AFF"/>
</svg>
